# xmcd
#
# Track frame offsets: 
#        150
#        12048
#        28013
#        43150
#        62326
#        78435
#        94425
#        116090
#        137559
#        155679
#        171961
#        187206
#        204357
#        217052
#        236047
#        252714
#        269505
#
# Disc length: 3837 seconds
#
# Revision: 1
# Processed by: cddbd v1.5.2PL0 Copyright (c) Steve Scherf et al.
# Submitted via: ExactAudioCopyFreeDBPlugin 1.0
#
DISCID=000efb11
DTITLE=群星 - TEST-CD试音极品09CDA
DYEAR=2013
DGENRE=stereo
TTITLE0=交响乐《胜利》序曲
TTITLE1=一水隔天涯(人声)
TTITLE2=《四季》小提琴狂想曲
TTITLE3=又见炊烟(人声)
TTITLE4=维塔斯《星星》(人声)
TTITLE5=《三国》之长城记
TTITLE6=烟花三月(人声)
TTITLE7=夜阑人静
TTITLE8=月光小夜曲(人声)
TTITLE9=《万宝路》回想曲
TTITLE10=在希望的田野上(人声)
TTITLE11=一剪梅(人声)
TTITLE12=《斯特劳斯》圆舞曲
TTITLE13=月光女神(人声)
TTITLE14=天空(人声)
TTITLE15=弥撒(人声与进行曲)
TTITLE16=世界鼓王
EXTD=
EXTT0=
EXTT1=
EXTT2=
EXTT3=
EXTT4=
EXTT5=
EXTT6=
EXTT7=
EXTT8=
EXTT9=
EXTT10=
EXTT11=
EXTT12=
EXTT13=
EXTT14=
EXTT15=
EXTT16=
PLAYORDER=
